<svg width="974" height="337" viewBox="0 0 974 337" fill="none" xmlns="http://www.w3.org/2000/svg">
<path d="M700.177 166.876C700.177 91.9626 643.172 25.8928 568.65 16.4588C494.642 7.0898 423.624 55.8681 404.522 127.813C395.567 161.54 401.045 195.485 386.538 228.337C372.015 261.223 345.726 288.443 313.304 303.945C246.971 335.659 165.72 312.749 124.697 251.959C113.141 234.837 105.174 215.425 101.35 195.121C97.4756 174.543 100.04 153.635 93.3314 133.514C80.0412 93.6604 42.8207 62.5716 0.984375 62.1351" stroke="white" stroke-width="24.6345" stroke-miterlimit="10"/>
<path d="M700.177 166.876C700.177 91.9626 643.172 25.8928 568.65 16.4588C494.642 7.0898 423.624 55.8681 404.522 127.813C395.567 161.54 401.045 195.485 386.538 228.337C372.015 261.223 345.726 288.443 313.304 303.945C246.971 335.659 165.72 312.749 124.697 251.959C113.141 234.837 105.174 215.425 101.35 195.121C97.4756 174.543 100.04 153.635 93.3314 133.514C80.0412 93.6604 42.8207 62.5716 0.984375 62.1351" stroke="white" stroke-width="24.6345" stroke-miterlimit="10"/>
<path d="M386.538 228.337C382.554 237.36 377.684 245.955 372.044 254" stroke="#4192CD" stroke-width="24.6345" stroke-miterlimit="10"/>
<path d="M248.208 62.9382C296.953 62.9382 339.419 98.9607 349.568 146.322C359.824 194.183 335.616 244.977 291.027 265.715C246.548 286.401 192.939 271.323 164.513 231.688C149.808 211.187 145.322 188.715 144.38 164.018C143.536 141.91 138.415 120.115 128.913 100.111C105.264 50.3243 52.5681 16.2587 0.984375 15.9493" stroke="white" stroke-width="24.6345" stroke-miterlimit="10"/>
<path d="M48.5961 169.062C48.5961 140.239 27.0696 111.797 0.983398 111.797" stroke="#DA3832" stroke-width="24.6345" stroke-miterlimit="10"/>
<path d="M758.594 226.97C787.379 226.97 813.887 202.941 815.399 174.416C816.023 162.652 817.158 151.074 819.599 139.52C827.809 100.663 847.981 64.161 881.467 41.7092C907.274 24.4079 941.472 14.4082 972.571 15.4665" stroke="white" stroke-width="24.6345" stroke-miterlimit="10"/>
<path d="M550.771 274.809C481.332 274.809 431.544 204.68 450.669 138.723C469.923 72.318 549.927 41.1584 607.957 79.9705C635.046 98.0877 652.534 128.454 654.85 160.963C657.19 193.801 663.319 222.44 688.244 246.159C738.676 294.147 822.326 277.95 852.712 215.76C868.783 182.872 859.458 145.76 878.726 113.618C898.233 81.0761 935.656 62.5716 972.57 62.684" stroke="white" stroke-width="24.6345" stroke-miterlimit="10"/>
<path d="M608.246 169.427C608.246 247.214 668.557 316.269 746.859 322.288C788.354 325.478 829.671 310.743 859.851 282.076C889.559 253.858 904.572 215.886 907.849 175.483C908.92 162.277 908.993 150.061 916.47 138.299C928.36 119.599 951.411 110.856 972.57 110.7" stroke="white" stroke-width="24.6345" stroke-miterlimit="10"/>
<path d="M190.593 169.083C190.593 219.023 252.041 246.186 287.521 210.08C322.109 174.881 297.831 111 247.388 111" stroke="white" stroke-width="24.6345" stroke-miterlimit="10"/>
<path d="M287.521 210.08C322.109 174.881 297.831 111 247.388 111" stroke="#F0BD4E" stroke-width="24.6345" stroke-miterlimit="10"/>
<path d="M549.855 227.116C518.445 227.116 493.059 200.14 493.059 169.064C493.058 137.984 518.438 111.007 549.855 111.007" stroke="white" stroke-width="24.6345" stroke-miterlimit="10"/>
</svg>
