<svg width="26" height="26" viewBox="0 0 26 26" fill="none" xmlns="http://www.w3.org/2000/svg">
<path d="M4.22484 13C4.22484 11.1475 5.73067 9.64171 7.58317 9.64171H11.9165V7.58337H7.58317C4.59317 7.58337 2.1665 10.01 2.1665 13C2.1665 15.99 4.59317 18.4167 7.58317 18.4167H11.9165V16.3584H7.58317C5.73067 16.3584 4.22484 14.8525 4.22484 13ZM8.6665 14.0834H17.3332V11.9167H8.6665V14.0834ZM18.4165 7.58337H14.0832V9.64171H18.4165C20.269 9.64171 21.7748 11.1475 21.7748 13C21.7748 14.8525 20.269 16.3584 18.4165 16.3584H14.0832V18.4167H18.4165C21.4065 18.4167 23.8332 15.99 23.8332 13C23.8332 10.01 21.4065 7.58337 18.4165 7.58337Z" fill="#DD443F"/>
</svg>
