<svg width="323" height="111" viewBox="0 0 323 111" fill="none" xmlns="http://www.w3.org/2000/svg">
<g clip-path="url(#clip0_13_83)">
<path d="M121.2 12.7H114.7V8.70001H133.3L131.9 12.7H125.9V29.6H121.3L121.2 12.7Z" fill="#7e7e82"/>
<path d="M137.4 35.2H133V14.5H137.4V16H137.5C138.2 15.2 139.4 14.1 141.7 14.1C145.6 14.1 148.6 17.4 148.6 22C148.6 26.6 145.6 30 141.7 30C139.4 30 138.1 28.9 137.5 28.1H137.4V35.2ZM140.7 26.1C142.7 26.1 144.1 24.4 144.1 22.1C144.1 19.9 142.7 18.2 140.7 18.2C138.7 18.2 137.3 19.9 137.3 22.1C137.2 24.3 138.7 26.1 140.7 26.1Z" fill="#7e7e82"/>
<path d="M150.5 24.9C150.5 22.5 152.5 20 157.2 20C157.9 20 158.9 20 159.7 20.2V20C159.7 18.6 158.6 18.1 157.3 18.1C156.2 18.1 154.9 18.5 153.8 19.2L151.2 16.6C152.9 15 155.4 14.3 157.5 14.3C161.5 14.3 164.1 16.5 164.1 20.2V29.8H159.8V28.3H159.7C158.9 29.6 157.5 30.2 155.6 30.2C152.7 30 150.5 27.8 150.5 24.9ZM159.8 23.9V23.4C159.2 23.3 158.5 23.2 157.9 23.2C155.9 23.2 155.1 23.9 155 24.9C155 25.9 155.8 26.6 157.1 26.6C158.3 26.6 159.8 25.8 159.8 23.9Z" fill="#7e7e82"/>
<path d="M167.9 14.5H172.3V20.1H177.2V14.5H181.6V29.6H177.2V23.9H172.3V29.6H167.9V14.5Z" fill="#7e7e82"/>
<path d="M184.6 22.1C184.6 17.5 187.6 14.2 192.1 14.2C194 14.2 196.1 14.6 197.9 16.3L195 19C194.3 18.3 193.4 18 192.3 18C190.3 18 189.1 19.7 189.1 22C189.1 24.3 190.3 26.1 192.3 26.1C193.3 26.1 194.3 25.8 195 25.1L197.8 27.9C196.1 29.6 193.9 30 192 30C187.5 30 184.6 26.8 184.6 22.1Z" fill="#7e7e82"/>
<path d="M200.2 14.5H213.4V29.6H209V18.3H204.6V29.6H200.2V14.5Z" fill="#7e7e82"/>
<path d="M216.3 22.1C216.3 17.5 219.5 14.2 224.1 14.2C228.6 14.2 231.8 17.5 231.8 22.1C231.8 26.8 228.6 30.1 224.1 30.1C219.5 30 216.3 26.8 216.3 22.1ZM227.3 22.1C227.3 19.8 226.1 18.1 224.1 18.1C222.1 18.1 220.9 19.8 220.9 22.1C220.9 24.4 222.1 26.2 224.1 26.2C226.1 26.1 227.3 24.3 227.3 22.1Z" fill="#7e7e82"/>
<path d="M239.2 35.2H234.8V14.5H239.2V16H239.3C240 15.2 241.2 14.1 243.5 14.1C247.5 14.1 250.4 17.4 250.4 22C250.4 26.6 247.4 30 243.5 30C241.2 30 239.9 28.9 239.3 28.1H239.2V35.2ZM242.4 26.1C244.4 26.1 245.8 24.4 245.8 22.1C245.8 19.9 244.4 18.2 242.4 18.2C240.4 18.2 239 19.9 239 22.1C239 24.3 240.4 26.1 242.4 26.1Z" fill="#7e7e82"/>
<path d="M256.3 18.3H251.9V14.5H265.5L264.1 18.3H260.7V29.6H256.3V18.3Z" fill="#7e7e82"/>
<path d="M267.4 14.5H271.8V20.1H276.7V14.5H281.1V29.6H276.7V23.9H271.8V29.6H267.4V14.5Z" fill="#7e7e82"/>
<path d="M289.4 14.5V18.8H292.3C295.6 18.8 298.4 21.2 298.4 24.2C298.4 27.2 295.6 29.6 292.3 29.6H285V14.5H289.4ZM291.9 26C293 26 293.8 25 293.8 24.2C293.8 23.4 293.1 22.4 291.9 22.4H289.4V26H291.9ZM300.1 14.5H304.4V29.6H300.1V14.5Z" fill="#7e7e82"/>
<path d="M307.4 22.1C307.4 17.5 310.5 14.2 314.9 14.2C319 14.2 322.2 16.7 322.2 22.5V23.6H312.2C312.5 25.5 314.2 26.2 315.6 26.2C317 26.2 318.2 25.5 318.7 24.8L321.5 27.6C319.7 29.4 317.6 30.1 315.1 30.1C311.1 30 307.4 27.2 307.4 22.1ZM317.6 20.4C317.4 18.7 316.5 17.7 314.8 17.7C313.3 17.7 312.3 18.9 312 20.4H317.6Z" fill="#7e7e82"/>
<path d="M115.7 43.9H120.1V52.4H120.2L126 43.9H129.8V59H125.4V50.5H125.3L119.5 59H115.7V43.9Z" fill="#7e7e82"/>
<path d="M133.7 43.9H138.1V49.5H143V43.9H147.4V59H143V53.3H138.1V59H133.7V43.9Z" fill="#7e7e82"/>
<path d="M151.4 43.9H155.8V49.5H160.7V43.9H165.1V59H160.7V53.3H155.8V59H151.4V43.9Z" fill="#7e7e82"/>
<path d="M168 51.4C168 46.8 171.2 43.5 175.8 43.5C180.3 43.5 183.5 46.8 183.5 51.4C183.5 56.1 180.3 59.4 175.8 59.4C171.2 59.4 168 56.1 168 51.4ZM178.9 51.4C178.9 49.1 177.7 47.4 175.7 47.4C173.7 47.4 172.5 49.1 172.5 51.4C172.5 53.7 173.7 55.5 175.7 55.5C177.7 55.5 178.9 53.7 178.9 51.4Z" fill="#7e7e82"/>
<path d="M186.5 59V43.9H194.3C197.3 43.9 199.8 45 199.8 48C199.8 49.4 198.7 50.6 197.6 50.9V51C199.4 51.5 200.5 52.7 200.5 54.6C200.5 56.8 198.9 59.1 195 59.1L186.5 59ZM193.3 50.2C194.4 50.2 195.3 49.8 195.3 48.6C195.3 47.4 194.4 47.1 193.3 47.1H190.8V50.2H193.3ZM194.1 55.8C195.3 55.8 195.7 55.2 195.7 54.5C195.7 53.8 195.3 53.1 194.1 53.1H190.8V55.9L194.1 55.8Z" fill="#7e7e82"/>
<path d="M202.3 54.3C202.3 51.9 204.3 49.4 209 49.4C209.7 49.4 210.7 49.4 211.5 49.6V49.4C211.5 48 210.4 47.5 209.1 47.5C208 47.5 206.7 47.9 205.6 48.6L203 46C204.7 44.4 207.2 43.7 209.3 43.7C213.3 43.7 215.9 45.9 215.9 49.6V59H211.6V57.5H211.5C210.7 58.8 209.3 59.4 207.4 59.4C204.5 59.4 202.3 57.2 202.3 54.3ZM211.5 53.2V52.7C210.9 52.6 210.2 52.5 209.6 52.5C207.6 52.5 206.8 53.2 206.7 54.2C206.7 55.2 207.5 55.9 208.8 55.9C210.1 55.9 211.5 55.2 211.5 53.2Z" fill="#7e7e82"/>
<path d="M231.8 59H219.6V43.9H224V55.2H228.6V43.9H233V55.2H235.9V63.1H231.8V59Z" fill="#7e7e82"/>
<path d="M238.5 43.9H242.9V52.4H243L248.8 43.9H252.6V59H248.2V50.5H248.1L242.3 59H238.5V43.9Z" fill="#7e7e82"/>
<path d="M256.5 43.9H260.9V52.4H261L266.8 43.9H270.6V59H266.2V50.5H266L260.2 59H256.4V43.9H256.5Z" fill="#7e7e82"/>
<path d="M114.6 89L121.5 68H125.1L129.9 82.2H130L134.8 68H138.4L145.3 89H140.2L136.5 76.8H136.4L132 89H127.8L123.4 76.8H123.3L119.7 89H114.6Z" fill="#7e7e82"/>
<path d="M146.3 81.4C146.3 76.8 149.5 73.5 154.1 73.5C158.6 73.5 161.8 76.8 161.8 81.4C161.8 86.1 158.6 89.4 154.1 89.4C149.4 89.3 146.3 86.1 146.3 81.4ZM157.2 81.4C157.2 79.1 156 77.4 154 77.4C152 77.4 150.8 79 150.8 81.4C150.8 83.7 152 85.5 154 85.5C156 85.5 157.2 83.6 157.2 81.4Z" fill="#7e7e82"/>
<path d="M163.8 81.4C163.8 76.8 166.8 73.5 171.3 73.5C173.2 73.5 175.3 73.9 177.1 75.6L174.3 78.4C173.6 77.7 172.7 77.4 171.6 77.4C169.6 77.4 168.4 79.1 168.4 81.4C168.4 83.7 169.6 85.5 171.6 85.5C172.6 85.5 173.6 85.2 174.3 84.5L177.1 87.3C175.4 89 173.2 89.4 171.3 89.4C166.7 89.3 163.8 86.1 163.8 81.4Z" fill="#7e7e82"/>
<path d="M179.4 73.8H183.8V79.5H184.5L188.1 73.8H193.1L188.2 81.3L193.7 88.9H188.4L184.4 83.1H183.9V89H179.5V73.8H179.4Z" fill="#7e7e82"/>
<path d="M195.4 89V73.8H203.2C206.2 73.8 208.7 74.9 208.7 77.9C208.7 79.3 207.6 80.5 206.5 80.8V80.9C208.3 81.4 209.4 82.6 209.4 84.5C209.4 86.7 207.8 89 203.9 89H195.4ZM202.3 80.1C203.4 80.1 204.3 79.7 204.3 78.5C204.3 77.3 203.4 77 202.3 77H199.8V80.1H202.3ZM203.1 85.8C204.3 85.8 204.7 85.2 204.7 84.5C204.7 83.8 204.3 83.1 203.1 83.1H199.8V85.9L203.1 85.8Z" fill="#7e7e82"/>
<path d="M216.8 73.8V78.1H219.7C223 78.1 225.8 80.5 225.8 83.5C225.8 86.5 223 88.9 219.7 88.9H212.4V73.8H216.8ZM219.2 85.3C220.3 85.3 221.1 84.3 221.1 83.5C221.1 82.7 220.4 81.7 219.2 81.7H216.7V85.3H219.2ZM227.4 73.8H231.7V89H227.4V73.8Z" fill="#7e7e82"/>
<path d="M34.4 56.8V42.2H26.5V56.8V64.7H34.4H49V56.8H34.4Z" fill="#7e7e82"/>
<path d="M56.9001 26.4H42.3V34.3H56.9001V48.9H64.7V34.3V26.4H56.9001Z" fill="#7e7e82"/>
<path d="M91.3 45.7C91.3 20.5 70.9 0 45.7 0C20.5 0 0 20.5 0 45.7C0 58.3 5.1 69.7 13.3 77.9C14 78.6 15 79 16 79C18 79 19.7 77.3 19.7 75.3C19.7 74.3 19.3 73.3 18.6 72.6C11.7 65.7 7.5 56.2 7.5 45.6C7.5 24.5 24.7 7.4 45.8 7.4C66.9 7.4 84 24.6 84 45.6C84 56.2 79.7 65.7 72.8 72.6L40.4 105L45.7 110.3L78 77.9C86.2 69.7 91.3 58.3 91.3 45.7Z" fill="#7e7e82"/>
</g>
<defs>
<clipPath id="clip0_13_83">
<rect width="322.1" height="110.3" fill="white"/>
</clipPath>
</defs>
</svg>
