<?xml version="1.0" standalone="no"?>
<!DOCTYPE svg PUBLIC "-//W3C//DTD SVG 20010904//EN"
 "http://www.w3.org/TR/2001/REC-SVG-20010904/DTD/svg10.dtd">
<svg version="1.0" xmlns="http://www.w3.org/2000/svg"
 width="512.000000pt" height="512.000000pt" viewBox="0 0 512.000000 512.000000"
 preserveAspectRatio="xMidYMid meet">
<metadata>
Created by potrace 1.14, written by Peter Selinger 2001-2017
</metadata>
<g transform="translate(0.000000,512.000000) scale(0.100000,-0.100000)"
fill="#000000" stroke="none">
<path d="M2295 5104 c-455 -58 -888 -269 -1216 -594 -131 -129 -187 -197 -275
-325 -64 -94 -178 -304 -202 -370 -5 -16 -22 -61 -36 -100 -27 -70 -71 -224
-81 -280 -3 -16 -12 -70 -21 -120 -18 -97 -25 -410 -12 -545 35 -375 206 -787
453 -1095 76 -96 161 -182 195 -200 117 -60 251 19 253 150 1 53 -24 100 -89
167 -239 250 -403 594 -458 957 -27 176 -15 466 25 646 45 199 164 462 287
634 68 96 260 299 342 363 208 160 435 271 680 331 161 40 231 48 404 51 216
3 385 -23 585 -90 126 -42 277 -114 381 -180 41 -27 77 -51 80 -54 3 -3 39
-31 80 -62 231 -175 468 -500 560 -771 12 -34 25 -71 30 -82 5 -11 12 -36 16
-55 4 -19 9 -39 11 -45 6 -24 34 -164 41 -210 15 -104 7 -431 -12 -525 -3 -14
-11 -50 -17 -80 -17 -87 -85 -283 -134 -383 -55 -115 -140 -251 -214 -342 -31
-38 -411 -424 -844 -858 -686 -686 -787 -790 -775 -804 7 -9 62 -65 121 -125
l109 -108 766 768 c422 423 791 795 820 828 229 254 410 609 481 944 40 189
46 248 46 470 0 182 -13 306 -47 450 -11 47 -22 95 -24 107 -22 113 -154 411
-247 558 -286 452 -725 779 -1232 918 -78 22 -165 40 -295 62 -76 13 -426 12
-535 -1z"/>
<path d="M2411 3890 c-4 -3 -7 -85 -6 -182 l0 -178 85 -1 c47 0 199 -1 338 -1
249 -1 252 -1 253 -22 0 -11 1 -164 1 -338 l1 -318 181 0 181 0 0 522 0 523
-513 0 c-283 0 -517 -2 -521 -5z"/>
<path d="M1728 3162 l-58 -3 0 -522 0 -522 513 1 c281 1 517 2 522 3 12 1 15
353 4 361 -4 3 -156 5 -338 4 -293 0 -331 2 -332 15 0 9 -1 159 -1 334 -1 248
-4 320 -14 324 -15 5 -217 9 -296 5z"/>
</g>
</svg>
